<svg width="70" height="70" viewBox="0 0 70 70" fill="none" xmlns="http://www.w3.org/2000/svg">
<path d="M34.8513 42.4081C24.7889 42.4081 16.2986 44.0524 16.2986 50.3983C16.2986 56.7468 24.8437 58.3333 34.8513 58.3333C44.9138 58.3333 53.4041 56.6891 53.4041 50.3431C53.4041 43.9946 44.8589 42.4081 34.8513 42.4081Z" fill="#1E90FF"/>
<path opacity="0.4" d="M34.8513 36.3622C41.6649 36.3622 47.1284 30.8673 47.1284 24.0144C47.1284 17.1589 41.6649 11.6667 34.8513 11.6667C28.0377 11.6667 22.5742 17.1589 22.5742 24.0144C22.5742 30.8673 28.0377 36.3622 34.8513 36.3622Z" fill="#1E90FF"/>
<path opacity="0.4" d="M61.5066 26.8895C63.2694 19.9552 58.1011 13.7275 51.5198 13.7275C50.8043 13.7275 50.12 13.8063 49.4515 13.9403C49.3627 13.9613 49.2634 14.0059 49.2112 14.0847C49.1511 14.1845 49.1955 14.3185 49.2608 14.4052C51.2378 17.1946 52.3738 20.5909 52.3738 24.2366C52.3738 27.73 51.3318 30.987 49.5037 33.6898C49.3157 33.9683 49.4828 34.3439 49.8145 34.4016C50.2741 34.4831 50.7442 34.5251 51.2247 34.5382C56.017 34.6643 60.3183 31.5623 61.5066 26.8895Z" fill="#1E90FF"/>
<path d="M66.5272 43.2161C65.6497 41.3354 63.5317 40.0457 60.3116 39.4127C58.7917 39.0397 54.6784 38.5144 50.8524 38.5853C50.795 38.5932 50.7636 38.6326 50.7584 38.6589C50.7506 38.6956 50.7662 38.7587 50.842 38.7981C52.61 39.678 59.4446 43.505 58.5853 51.5766C58.5488 51.9259 58.8282 52.228 59.1756 52.1755C60.8574 51.9338 65.1848 50.9987 66.5272 48.0858C67.2689 46.5466 67.2689 44.7579 66.5272 43.2161Z" fill="#1E90FF"/>
<path opacity="0.4" d="M20.5475 13.9411C19.8815 13.8045 19.1947 13.7283 18.4791 13.7283C11.8979 13.7283 6.72956 19.956 8.49499 26.8903C9.68066 31.5631 13.9819 34.6651 18.7742 34.539C19.2547 34.5259 19.7274 34.4812 20.1845 34.4024C20.5161 34.3447 20.6833 33.969 20.4953 33.6906C18.6671 30.9852 17.6251 27.7308 17.6251 24.2374C17.6251 20.589 18.7638 17.1928 20.7407 14.406C20.8034 14.3193 20.8504 14.1853 20.7878 14.0855C20.7355 14.0041 20.6389 13.9621 20.5475 13.9411Z" fill="#1E90FF"/>
<path d="M9.68795 39.4119C6.46786 40.0449 4.35247 41.3346 3.47498 43.2153C2.73067 44.7571 2.73067 46.5458 3.47498 48.0877C4.81733 50.9979 9.14474 51.9357 10.8266 52.1747C11.1739 52.2272 11.4508 51.9278 11.4142 51.5758C10.555 43.5068 17.3895 39.6798 19.1602 38.7999C19.2333 38.7579 19.249 38.6975 19.2412 38.6581C19.2359 38.6318 19.2072 38.5924 19.1497 38.5872C15.3212 38.5136 11.2105 39.0389 9.68795 39.4119Z" fill="#1E90FF"/>
</svg>
