<svg width="51" height="50" viewBox="0 0 51 50" fill="none" xmlns="http://www.w3.org/2000/svg">
<path opacity="0.4" d="M16.5125 45.8335H33.5292C40.9021 45.8335 45.8542 41.0918 45.8542 34.0314V15.9689C45.8542 8.90849 40.9021 4.16682 33.5292 4.16682H16.5125C9.14167 4.16682 4.1875 8.91058 4.1875 15.971L4.1875 34.0314C4.1875 41.0918 9.14167 45.8335 16.5125 45.8335Z" fill="#001DF0"/>
<path d="M26.8032 33.9152L34.647 26.1068C35.2366 25.5193 35.2366 24.4797 34.647 23.8902L26.8032 16.0818C26.1907 15.4735 25.2012 15.4756 24.5928 16.0881C23.9845 16.7006 23.9845 17.6881 24.597 18.2985L29.7574 23.4381H16.5178C15.6532 23.4381 14.9553 24.1381 14.9553 25.0006C14.9553 25.8631 15.6532 26.5631 16.5178 26.5631H29.7574L24.597 31.7006C24.2907 32.0068 24.1387 32.4068 24.1387 32.8089C24.1387 33.2068 24.2907 33.6068 24.5928 33.911C25.2012 34.5214 26.1907 34.5235 26.8032 33.9152Z" fill="#001DF0"/>
</svg>
