<svg width="51" height="50" viewBox="0 0 51 50" fill="none" xmlns="http://www.w3.org/2000/svg">
<path opacity="0.4" d="M33.5295 4.1665L16.5128 4.1665C9.13991 4.1665 4.18782 8.90817 4.18782 15.9686L4.18782 34.0311C4.18782 41.0915 9.13991 45.8332 16.5128 45.8332L33.5295 45.8332C40.9003 45.8332 45.8545 41.0894 45.8545 34.029L45.8545 15.9686C45.8545 8.90817 40.9003 4.1665 33.5295 4.1665Z" fill="#1E90FF"/>
<path d="M23.2388 16.0848L15.395 23.8932C14.8054 24.4807 14.8054 25.5203 15.395 26.1098L23.2388 33.9182C23.8513 34.5265 24.8408 34.5244 25.4492 33.9119C26.0575 33.2994 26.0575 32.3119 25.445 31.7015L20.2846 26.5619L33.5242 26.5619C34.3888 26.5619 35.0867 25.8619 35.0867 24.9994C35.0867 24.1369 34.3888 23.4369 33.5242 23.4369L20.2846 23.4369L25.445 18.2994C25.7513 17.9932 25.9033 17.5932 25.9033 17.1911C25.9033 16.7932 25.7513 16.3932 25.4492 16.089C24.8408 15.4786 23.8513 15.4765 23.2388 16.0848Z" fill="#1E90FF"/>
</svg>
