<svg width="30" height="30" viewBox="0 0 30 30" fill="none" xmlns="http://www.w3.org/2000/svg">
<path fill-rule="evenodd" clip-rule="evenodd" d="M3.75 21.0875V11.5712H26.25V21.1637C26.25 25.0875 23.7802 27.5 19.8285 27.5H10.1592C6.24451 27.5 3.75 25.0375 3.75 21.0875ZM9.94923 18.0125C9.38117 18.0387 8.91191 17.5875 8.88721 17.0137C8.88721 16.4387 9.33178 15.9637 9.89984 15.9375C10.4555 15.9375 10.9125 16.3762 10.9248 16.9375C10.9495 17.5137 10.5049 17.9887 9.94923 18.0125ZM15.0247 18.0125C14.4566 18.0387 13.9874 17.5875 13.9627 17.0137C13.9627 16.4387 14.4072 15.9637 14.9753 15.9375C15.531 15.9375 15.9879 16.3762 16.0003 16.9375C16.025 17.5137 15.5804 17.9887 15.0247 18.0125ZM20.0631 22.6125C19.4951 22.6 19.0381 22.125 19.0381 21.55C19.0258 20.975 19.4827 20.5012 20.0508 20.4887H20.0631C20.6435 20.4887 21.1128 20.9637 21.1128 21.55C21.1128 22.1375 20.6435 22.6125 20.0631 22.6125ZM13.9627 21.55C13.9874 22.125 14.4566 22.5762 15.0247 22.55C15.5804 22.5262 16.025 22.0513 16.0003 21.4763C15.9879 20.9138 15.531 20.475 14.9753 20.475C14.4072 20.5013 13.9627 20.975 13.9627 21.55ZM8.87486 21.55C8.89956 22.125 9.36883 22.5762 9.93688 22.55C10.4926 22.5262 10.9372 22.0513 10.9125 21.4763C10.9001 20.9138 10.4432 20.475 9.88749 20.475C9.31943 20.5013 8.87486 20.975 8.87486 21.55ZM19.0505 17.0012C19.0505 16.4262 19.4951 15.9637 20.0631 15.9512C20.6188 15.9512 21.0634 16.4 21.0881 16.9512C21.1004 17.5262 20.6559 18.0012 20.1002 18.0125C19.5321 18.025 19.0628 17.5875 19.0505 17.0137V17.0012Z" fill="#1E90FF"/>
<path opacity="0.4" d="M3.75415 11.5711C3.7702 10.8374 3.83195 9.38112 3.94803 8.91237C4.54079 6.27613 6.55368 4.60113 9.43102 4.36238H20.5699C23.4225 4.61363 25.4601 6.29988 26.0529 8.91237C26.1677 9.36862 26.2295 10.8361 26.2455 11.5711H3.75415Z" fill="#1E90FF"/>
<path d="M10.3811 8.2375C10.9244 8.2375 11.3319 7.82625 11.3319 7.275V3.46375C11.3319 2.9125 10.9244 2.5 10.3811 2.5C9.8377 2.5 9.43018 2.9125 9.43018 3.46375V7.275C9.43018 7.82625 9.8377 8.2375 10.3811 8.2375Z" fill="#1E90FF"/>
<path d="M19.6186 8.2375C20.1496 8.2375 20.5695 7.82625 20.5695 7.275V3.46375C20.5695 2.9125 20.1496 2.5 19.6186 2.5C19.0752 2.5 18.6677 2.9125 18.6677 3.46375V7.275C18.6677 7.82625 19.0752 8.2375 19.6186 8.2375Z" fill="#1E90FF"/>
</svg>
