<svg width="30" height="30" viewBox="0 0 30 30" fill="none" xmlns="http://www.w3.org/2000/svg">
<path opacity="0.4" d="M15.025 2.5C7.7625 2.5 2.5 8.425 2.5 15C2.5 17.1 3.1125 19.2625 4.1875 21.2375C4.3875 21.5625 4.4125 21.975 4.275 22.3625L3.4375 25.1625C3.25 25.8375 3.825 26.3375 4.4625 26.1375L6.9875 25.3875C7.675 25.1625 8.2125 25.45 8.85125 25.8375C10.6762 26.9125 12.95 27.4625 15 27.4625C21.2 27.4625 27.5 22.675 27.5 14.9625C27.5 8.3125 22.125 2.5 15.025 2.5Z" fill="#1E90FF"/>
<path fill-rule="evenodd" clip-rule="evenodd" d="M14.9755 16.6126C14.088 16.6001 13.3755 15.8876 13.3755 15.0001C13.3755 14.1251 14.1005 13.4001 14.9755 13.4126C15.863 13.4126 16.5755 14.1251 16.5755 15.0126C16.5755 15.8876 15.863 16.6126 14.9755 16.6126ZM9.21255 16.6126C8.33755 16.6126 7.61255 15.8876 7.61255 15.0126C7.61255 14.1251 8.32505 13.4126 9.21255 13.4126C10.1 13.4126 10.8125 14.1251 10.8125 15.0126C10.8125 15.8876 10.1 16.6001 9.21255 16.6126ZM19.1378 15.0126C19.1378 15.8876 19.8503 16.6126 20.7378 16.6126C21.6253 16.6126 22.3378 15.8876 22.3378 15.0126C22.3378 14.1251 21.6253 13.4126 20.7378 13.4126C19.8503 13.4126 19.1378 14.1251 19.1378 15.0126Z" fill="#1E90FF"/>
</svg>
