<svg width="58" height="58" viewBox="0 0 58 58" fill="none" xmlns="http://www.w3.org/2000/svg">
<circle cx="29" cy="29" r="29" fill="#1E90FF"/>
<path opacity="0.4" d="M36.234 12.333H21.784C16.134 12.333 12.334 16.2997 12.334 22.1997V35.8163C12.334 41.6997 16.134 45.6663 21.784 45.6663H36.234C41.884 45.6663 45.6673 41.6997 45.6673 35.8163V22.1997C45.6673 16.2997 41.884 12.333 36.234 12.333" fill="white"/>
<path d="M27.0226 34.4129C26.6492 34.4129 26.2759 34.2713 25.9909 33.9863L22.0359 30.0313C21.4659 29.4613 21.4659 28.5379 22.0359 27.9696C22.6059 27.3996 23.5276 27.3979 24.0976 27.9679L27.0226 30.8929L33.9026 24.0129C34.4726 23.4429 35.3942 23.4429 35.9642 24.0129C36.5342 24.5829 36.5342 25.5063 35.9642 26.0763L28.0542 33.9863C27.7692 34.2713 27.3959 34.4129 27.0226 34.4129" fill="white"/>
</svg>
