<svg width="58" height="58" viewBox="0 0 58 58" fill="none" xmlns="http://www.w3.org/2000/svg">
<circle cx="29" cy="29" r="29" fill="#001DF0"/>
<path opacity="0.4" d="M25.8056 35.5967H14.8464C13.4594 35.5967 12.3335 36.7029 12.3335 38.0656C12.3335 39.4264 13.4594 40.5344 14.8464 40.5344H25.8056C27.1927 40.5344 28.3186 39.4264 28.3186 38.0656C28.3186 36.7029 27.1927 35.5967 25.8056 35.5967" fill="white"/>
<path opacity="0.4" d="M45.6668 19.6311C45.6668 18.2702 44.5409 17.1641 43.1557 17.1641H32.1965C30.8095 17.1641 29.6836 18.2702 29.6836 19.6311C29.6836 20.9938 30.8095 22.1 32.1965 22.1H43.1557C44.5409 22.1 45.6668 20.9938 45.6668 19.6311" fill="white"/>
<path d="M23.7964 19.6309C23.7964 22.742 21.2316 25.2637 18.0649 25.2637C14.9001 25.2637 12.3335 22.742 12.3335 19.6309C12.3335 16.5216 14.9001 14 18.0649 14C21.2316 14 23.7964 16.5216 23.7964 19.6309" fill="white"/>
<path d="M45.667 37.9985C45.667 41.1078 43.1022 43.6294 39.9356 43.6294C36.7708 43.6294 34.2041 41.1078 34.2041 37.9985C34.2041 34.8874 36.7708 32.3657 39.9356 32.3657C43.1022 32.3657 45.667 34.8874 45.667 37.9985" fill="white"/>
</svg>
