<svg width="70" height="70" viewBox="0 0 70 70" fill="none" xmlns="http://www.w3.org/2000/svg">
<path fill-rule="evenodd" clip-rule="evenodd" d="M24.8838 8.56559C31.2563 4.86289 39.0892 4.92761 45.4019 8.73512C51.6525 12.6202 55.4515 19.5539 55.4161 27.0126C55.2706 34.4223 51.197 41.3875 46.105 46.7719C43.1661 49.8937 39.8784 52.6541 36.309 54.9968C35.9414 55.2094 35.5388 55.3517 35.1209 55.4167C34.7187 55.3996 34.3271 55.2807 33.9813 55.0709C28.532 51.5508 23.7513 47.0576 19.8692 41.8074C16.6208 37.4248 14.7753 32.13 14.5833 26.6421C14.579 19.1691 18.5113 12.2683 24.8838 8.56559ZM28.5662 29.7348C29.6382 32.3774 32.1684 34.1012 34.9754 34.1012C36.8144 34.1144 38.5821 33.3778 39.8848 32.0556C41.1874 30.7333 41.9167 28.9352 41.9102 27.062C41.92 24.2026 40.2367 21.6193 37.6461 20.5181C35.0555 19.4169 32.0688 20.0152 30.0804 22.0335C28.0921 24.0519 27.4943 27.0921 28.5662 29.7348Z" fill="#1E90FF"/>
<ellipse opacity="0.4" cx="34.9998" cy="61.25" rx="14.5833" ry="2.91667" fill="#1E90FF"/>
</svg>
