<svg width="58" height="58" viewBox="0 0 58 58" fill="none" xmlns="http://www.w3.org/2000/svg">
<circle cx="29" cy="29" r="29" fill="#FB7B40"/>
<path fill-rule="evenodd" clip-rule="evenodd" d="M23.2195 13.8948C26.861 11.779 31.3369 11.8159 34.9441 13.9917C38.5159 16.2117 40.6868 20.1738 40.6665 24.4359C40.5834 28.6701 38.2557 32.6502 35.3459 35.727C33.6665 37.5108 31.7879 39.0882 29.7482 40.4269C29.5382 40.5484 29.3081 40.6297 29.0693 40.6668C28.8395 40.657 28.6157 40.5891 28.4181 40.4692C25.3042 38.4578 22.5724 35.8902 20.354 32.8901C18.4978 30.3858 17.4432 27.3602 17.3335 24.2242C17.3311 19.9539 19.5781 16.0106 23.2195 13.8948ZM25.3238 25.9915C25.9363 27.5016 27.3821 28.4866 28.9862 28.4866C30.037 28.4941 31.0471 28.0732 31.7915 27.3176C32.5359 26.562 32.9526 25.5346 32.9489 24.4641C32.9545 22.8302 31.9926 21.354 30.5123 20.7248C29.0319 20.0956 27.3252 20.4374 26.189 21.5907C25.0528 22.7441 24.7112 24.4814 25.3238 25.9915Z" fill="white"/>
<ellipse opacity="0.4" cx="29.0003" cy="44.0002" rx="8.33333" ry="1.66667" fill="white"/>
</svg>
