<svg width="70" height="70" viewBox="0 0 70 70" fill="none" xmlns="http://www.w3.org/2000/svg">
<path opacity="0.4" d="M54.859 26.3113C53.542 26.3113 51.7977 26.2821 49.626 26.2821C44.3295 26.2821 39.9744 21.8983 39.9744 16.5521V7.17209C39.9744 6.43417 39.3853 5.83334 38.6546 5.83334H23.2272C16.0275 5.83334 10.2083 11.7425 10.2083 18.9846V50.4117C10.2083 58.0096 16.3047 64.1667 23.8279 64.1667H46.8016C53.9752 64.1667 59.7916 58.2954 59.7916 51.0475V27.6238C59.7916 26.8829 59.2053 26.285 58.4718 26.2879C57.2386 26.2967 55.76 26.3113 54.859 26.3113Z" fill="#1E90FF"/>
<path opacity="0.4" d="M46.9117 7.48796C46.0396 6.58088 44.5171 7.20505 44.5171 8.46213V16.1534C44.5171 19.3792 47.1742 22.0334 50.4 22.0334C52.4329 22.0567 55.2563 22.0625 57.6538 22.0567C58.8817 22.0538 59.5058 20.5867 58.6542 19.7C55.5771 16.5005 50.0675 10.7663 46.9117 7.48796Z" fill="#1E90FF"/>
<path fill-rule="evenodd" clip-rule="evenodd" d="M26.1739 33.2138H36.0468C37.2456 33.2138 38.2197 32.2426 38.2197 31.0438C38.2197 29.8451 37.2456 28.8709 36.0468 28.8709H26.1739C24.9752 28.8709 24.0039 29.8451 24.0039 31.0438C24.0039 32.2426 24.9752 33.2138 26.1739 33.2138ZM26.174 47.7803H42.0523C43.2511 47.7803 44.2253 46.809 44.2253 45.6103C44.2253 44.4115 43.2511 43.4373 42.0523 43.4373H26.174C24.9753 43.4373 24.004 44.4115 24.004 45.6103C24.004 46.809 24.9753 47.7803 26.174 47.7803Z" fill="#1E90FF"/>
</svg>
