<svg width="100" height="100" viewBox="0 0 100 100" fill="none" xmlns="http://www.w3.org/2000/svg">
<path opacity="0.4" d="M78.37 37.5875C76.4887 37.5875 73.9968 37.5459 70.8943 37.5459C63.3278 37.5459 57.1064 31.2834 57.1064 23.6459V10.2459C57.1064 9.19171 56.2647 8.33337 55.2209 8.33337H33.1817C22.8964 8.33337 14.5833 16.775 14.5833 27.1209V72.0167C14.5833 82.8709 23.2925 91.6667 34.0398 91.6667H66.8594C77.1075 91.6667 85.4166 83.2792 85.4166 72.925V39.4625C85.4166 38.4042 84.5791 37.55 83.5312 37.5542C81.7695 37.5667 79.6572 37.5875 78.37 37.5875" fill="#1E90FF"/>
<path opacity="0.4" d="M67.0165 10.6971C65.7707 9.4013 63.5957 10.293 63.5957 12.0888V23.0763C63.5957 27.6846 67.3915 31.4763 71.9999 31.4763C74.904 31.5096 78.9374 31.518 82.3624 31.5096C84.1165 31.5055 85.0082 29.4096 83.7915 28.143C79.3957 23.5721 71.5249 15.3805 67.0165 10.6971" fill="#1E90FF"/>
<path fill-rule="evenodd" clip-rule="evenodd" d="M37.3911 47.4483H51.4953C53.2078 47.4483 54.5995 46.0608 54.5995 44.3483C54.5995 42.6358 53.2078 41.2441 51.4953 41.2441H37.3911C35.6786 41.2441 34.2911 42.6358 34.2911 44.3483C34.2911 46.0608 35.6786 47.4483 37.3911 47.4483ZM37.3913 68.2575H60.0746C61.7871 68.2575 63.1788 66.87 63.1788 65.1575C63.1788 63.445 61.7871 62.0533 60.0746 62.0533H37.3913C35.6788 62.0533 34.2913 63.445 34.2913 65.1575C34.2913 66.87 35.6788 68.2575 37.3913 68.2575Z" fill="#1E90FF"/>
</svg>
