<svg width="58" height="58" viewBox="0 0 58 58" fill="none" xmlns="http://www.w3.org/2000/svg">
<circle cx="29" cy="29" r="29" fill="#2DCE89"/>
<path opacity="0.4" d="M30.6273 14.1892L34.3381 21.6463C34.6115 22.1866 35.1333 22.5618 35.7351 22.6452L44.0702 23.8591C44.557 23.9275 44.9988 24.1843 45.2971 24.5761C45.5922 24.963 45.7189 25.4533 45.6472 25.9352C45.5889 26.3354 45.4005 26.7056 45.1121 26.989L39.0725 32.8437C38.6307 33.2522 38.4307 33.8575 38.5374 34.4495L40.0243 42.6803C40.1827 43.6742 39.5242 44.6113 38.5374 44.7998C38.1306 44.8648 37.7139 44.7964 37.3471 44.6097L29.9122 40.736C29.3604 40.4576 28.7086 40.4576 28.1568 40.736L20.7219 44.6097C19.8083 45.0949 18.6764 44.7647 18.168 43.8643C17.9796 43.5058 17.9129 43.0972 17.9746 42.6987L19.4616 34.4662C19.5683 33.8759 19.3666 33.2672 18.9265 32.8587L12.8869 27.0074C12.1684 26.3137 12.1467 25.1714 12.8385 24.4527C12.8535 24.4377 12.8702 24.4211 12.8869 24.4044C13.1736 24.1126 13.5503 23.9275 13.9571 23.8791L22.2922 22.6635C22.8923 22.5785 23.4141 22.2066 23.6892 21.663L27.2666 14.1892C27.585 13.5489 28.2452 13.1503 28.962 13.167H29.1854C29.8072 13.242 30.3489 13.6272 30.6273 14.1892" fill="white"/>
<path d="M28.9868 40.5284C28.664 40.5384 28.3495 40.6251 28.0666 40.7802L20.668 44.6451C19.7628 45.0771 18.6794 44.7418 18.1719 43.8761C17.9838 43.5225 17.9156 43.1172 17.9789 42.7202L19.4566 34.5051C19.5564 33.9079 19.3567 33.3008 18.9224 32.8804L12.8801 27.0306C12.1628 26.3284 12.1495 25.1758 12.8518 24.4569C12.8618 24.4468 12.8701 24.4385 12.8801 24.4302C13.1663 24.1466 13.5357 23.9598 13.9334 23.9014L22.2755 22.6737C22.8796 22.597 23.4038 22.22 23.6701 21.6729L27.2961 14.105C27.6406 13.4945 28.3012 13.1309 29.0002 13.1693C28.9868 13.6647 28.9868 40.1914 28.9868 40.5284" fill="white"/>
</svg>
