<svg width="70" height="70" viewBox="0 0 70 70" fill="none" xmlns="http://www.w3.org/2000/svg">
<path opacity="0.4" d="M37.8475 9.08138L44.3414 22.1313C44.8198 23.0768 45.7329 23.7334 46.7861 23.8793L61.3725 26.0037C62.2244 26.1234 62.9975 26.5728 63.5196 27.2585C64.036 27.9355 64.2577 28.7935 64.1323 29.6368C64.0302 30.3372 63.7005 30.985 63.1958 31.4811L52.6265 41.7267C51.8534 42.4417 51.5033 43.501 51.69 44.5369L54.2922 58.9409C54.5694 60.6801 53.4171 62.3201 51.69 62.6499C50.9782 62.7637 50.2489 62.644 49.6071 62.3172L36.596 55.5383C35.6303 55.051 34.4897 55.051 33.524 55.5383L20.5129 62.3172C18.9142 63.1664 16.9334 62.5886 16.0436 61.0128C15.714 60.3854 15.5973 59.6704 15.7052 58.973L18.3074 44.5661C18.4941 43.5331 18.1412 42.4679 17.371 41.753L6.80163 31.5132C5.54428 30.2992 5.50636 28.3003 6.71703 27.0426C6.74329 27.0163 6.77246 26.9872 6.80163 26.958C7.30341 26.4473 7.96272 26.1234 8.67454 26.0388L23.261 23.9114C24.3112 23.7626 25.2243 23.1118 25.7057 22.1605L31.9662 9.08138C32.5234 7.96081 33.6787 7.26337 34.9331 7.29255H35.324C36.4122 7.42387 37.3603 8.09796 37.8475 9.08138Z" fill="#1E90FF"/>
<path d="M34.9766 55.1749C34.4117 55.1924 33.8613 55.3442 33.3662 55.6157L20.4187 62.3792C18.8345 63.1352 16.9386 62.5485 16.0504 61.0335C15.7214 60.4146 15.602 59.7053 15.7126 59.0106L18.2986 44.6342C18.4734 43.5892 18.1239 42.5266 17.3638 41.791L6.78974 31.5539C5.53459 30.325 5.51129 28.3079 6.74023 27.0498C6.7577 27.0323 6.77226 27.0177 6.78974 27.0031C7.29063 26.5068 7.93713 26.1799 8.63314 26.0777L23.2318 23.9293C24.289 23.795 25.2063 23.1353 25.6722 22.1779L32.0179 8.9341C32.6207 7.86572 33.7768 7.22937 34.9999 7.29651C34.9766 8.16347 34.9766 54.5853 34.9766 55.1749Z" fill="#1E90FF"/>
</svg>
