<svg width="58" height="58" viewBox="0 0 58 58" fill="none" xmlns="http://www.w3.org/2000/svg">
<circle cx="29" cy="29" r="29" fill="#1E90FF"/>
<path opacity="0.4" d="M12.3335 27.4644C12.4168 31.361 12.6502 38.026 12.6835 38.761C12.8018 40.3327 13.4035 41.921 14.3402 43.041C15.6435 44.6127 17.2485 45.3144 19.4868 45.3144C22.5802 45.331 25.9902 45.331 29.3018 45.331C32.6268 45.331 35.8535 45.331 38.5785 45.3144C40.7852 45.3144 42.4402 44.5944 43.7268 43.041C44.6635 41.921 45.2652 40.316 45.3502 38.761C45.3835 38.1427 45.5502 30.9077 45.6502 27.4644H12.3335Z" fill="white"/>
<path d="M27.7422 34.6401V36.7968C27.7422 37.4868 28.3022 38.0468 28.9922 38.0468C29.6822 38.0468 30.2422 37.4868 30.2422 36.7968V34.6401C30.2422 33.9501 29.6822 33.3901 28.9922 33.3901C28.3022 33.3901 27.7422 33.9501 27.7422 34.6401" fill="white"/>
<path fill-rule="evenodd" clip-rule="evenodd" d="M26.0185 33.2607C25.8518 33.8657 25.2702 34.2523 24.6402 34.169C20.3885 33.5757 16.3252 32.0673 12.8952 29.8023C12.5435 29.5723 12.3335 29.179 12.3335 28.759V22.9823C12.3335 19.4823 15.1868 16.6357 18.6952 16.6357H21.9735C22.2868 14.2157 24.3368 12.334 26.8402 12.334H31.1435C33.6452 12.334 35.6968 14.2157 36.0102 16.6357H39.3052C42.8035 16.6357 45.6502 19.4823 45.6502 22.9823V28.759C45.6502 29.179 45.4385 29.5707 45.0902 29.8023C41.6535 32.0773 37.5735 33.5923 33.2935 34.184C33.2352 34.1923 33.1785 34.1957 33.1218 34.1957C32.5568 34.1957 32.0518 33.814 31.9102 33.254C31.5735 31.9273 30.3685 30.999 28.9835 30.999C27.5802 30.999 26.3885 31.9073 26.0185 33.2607ZM31.1435 14.834H26.8402C25.7185 14.834 24.7818 15.6007 24.5018 16.6357H33.4802C33.2002 15.6007 32.2635 14.834 31.1435 14.834Z" fill="white"/>
</svg>
