<svg width="70" height="70" viewBox="0 0 70 70" fill="none" xmlns="http://www.w3.org/2000/svg">
<path opacity="0.4" d="M5.83398 32.3123C5.97982 39.1315 6.38815 50.7952 6.44648 52.0815C6.65357 54.8319 7.70648 57.6115 9.34565 59.5715C11.6265 62.3219 14.4352 63.5498 18.3523 63.5498C23.7657 63.579 29.7332 63.579 35.5286 63.579C41.3473 63.579 46.994 63.579 51.7627 63.5498C55.6244 63.5498 58.5207 62.2898 60.7723 59.5715C62.4115 57.6115 63.4644 54.8027 63.6132 52.0815C63.6715 50.9994 63.9632 38.3381 64.1382 32.3123H5.83398Z" fill="#1E90FF"/>
<path d="M32.7991 44.8706V48.6447C32.7991 49.8522 33.7791 50.8322 34.9866 50.8322C36.1941 50.8322 37.1741 49.8522 37.1741 48.6447V44.8706C37.1741 43.6631 36.1941 42.6831 34.9866 42.6831C33.7791 42.6831 32.7991 43.6631 32.7991 44.8706Z" fill="#1E90FF"/>
<path fill-rule="evenodd" clip-rule="evenodd" d="M29.783 42.4562C29.4913 43.5149 28.4734 44.1916 27.3709 44.0458C19.9305 43.0074 12.8196 40.3678 6.81715 36.4041C6.20173 36.0016 5.83423 35.3133 5.83423 34.5783V24.4691C5.83423 18.3441 10.8276 13.3624 16.9671 13.3624H22.7042C23.2526 9.12742 26.8401 5.8345 31.2209 5.8345H38.7517C43.1296 5.8345 46.7201 9.12742 47.2684 13.3624H53.0346C59.1567 13.3624 64.1384 18.3441 64.1384 24.4691V34.5783C64.1384 35.3133 63.768 35.9987 63.1584 36.4041C57.1442 40.3853 50.0042 43.0366 42.5142 44.072C42.4121 44.0866 42.313 44.0924 42.2138 44.0924C41.2251 44.0924 40.3413 43.4245 40.0934 42.4445C39.5042 40.1228 37.3955 38.4983 34.9717 38.4983C32.5159 38.4983 30.4305 40.0878 29.783 42.4562ZM38.7517 10.2095H31.2209C29.258 10.2095 27.6188 11.5512 27.1288 13.3624H42.8409C42.3509 11.5512 40.7117 10.2095 38.7517 10.2095Z" fill="#1E90FF"/>
</svg>
